<svg width="36" height="36" viewBox="0 0 36 36" fill="none" xmlns="http://www.w3.org/2000/svg">
<g clip-path="url(#clip0_cloud_arch)">
<path d="M27 25.5C27 22.4625 24.5375 20 21.5 20C19.355 20 17.48 21.215 16.52 23.01C15.27 22.385 13.8 22 12.25 22C8.14 22 4.75 25.39 4.75 29.5C4.75 30.33 4.88 31.12 5.12 31.86H27.88C29.6 31.86 31 30.46 31 28.74C31 27.24 29.97 25.98 28.5 25.62V25.5H27Z" fill="white"/>
<path opacity="0.5" d="M21.5 23C23.433 23 25 24.567 25 26.5V27H28.5C29.33 27 30 27.67 30 28.5C30 29.33 29.33 30 28.5 30H6.5C5.67 30 5 29.33 5 28.5C5 27.67 5.67 27 6.5 27H10V26.5C10 24.567 11.567 23 13.5 23C14.8 23 15.93 23.65 16.52 24.62C17.48 23.215 19.355 23 21.5 23Z" fill="white"/>
</g>
<defs>
<clipPath id="clip0_cloud_arch">
<rect width="36" height="36" fill="white"/>
</clipPath>
</defs>
</svg>
